<mxfile host="app.diagrams.net" modified="2023-07-24T19:44:27.968Z" agent="Mozilla/5.0 (Windows NT 10.0; Win64; x64) AppleWebKit/537.36 (KHTML, like Gecko) Chrome/114.0.0.0 Safari/537.36" etag="E0KDsiWa0UZT_u0R9xSQ" version="21.3.5" type="github">
  <diagram id="C5RBs43oDa-KdzZeNtuy" name="Page-1">
    <mxGraphModel dx="794" dy="438" grid="1" gridSize="10" guides="1" tooltips="1" connect="1" arrows="0" fold="1" page="1" pageScale="1" pageWidth="827" pageHeight="1169" math="0" shadow="0">
      <root>
        <mxCell id="WIyWlLk6GJQsqaUBKTNV-0" />
        <mxCell id="WIyWlLk6GJQsqaUBKTNV-1" parent="WIyWlLk6GJQsqaUBKTNV-0" />
        <mxCell id="y7cVPM1f1cwm2seNDRHx-16" value="" style="rounded=0;html=1;jettySize=auto;orthogonalLoop=1;fontSize=11;endArrow=block;endFill=0;endSize=8;strokeWidth=1;shadow=0;labelBackgroundColor=none;edgeStyle=orthogonalEdgeStyle;" edge="1" parent="WIyWlLk6GJQsqaUBKTNV-1" source="y7cVPM1f1cwm2seNDRHx-17" target="y7cVPM1f1cwm2seNDRHx-20">
          <mxGeometry relative="1" as="geometry" />
        </mxCell>
        <mxCell id="y7cVPM1f1cwm2seNDRHx-17" value="请求图片" style="rounded=1;whiteSpace=wrap;html=1;fontSize=12;glass=0;strokeWidth=1;shadow=0;fillColor=#ffe6cc;strokeColor=#d79b00;" vertex="1" parent="WIyWlLk6GJQsqaUBKTNV-1">
          <mxGeometry x="242" y="80" width="120" height="40" as="geometry" />
        </mxCell>
        <mxCell id="y7cVPM1f1cwm2seNDRHx-19" value="yes" style="edgeStyle=orthogonalEdgeStyle;rounded=0;orthogonalLoop=1;jettySize=auto;html=1;fontStyle=2" edge="1" parent="WIyWlLk6GJQsqaUBKTNV-1" source="y7cVPM1f1cwm2seNDRHx-20" target="y7cVPM1f1cwm2seNDRHx-30">
          <mxGeometry relative="1" as="geometry" />
        </mxCell>
        <mxCell id="y7cVPM1f1cwm2seNDRHx-40" style="edgeStyle=orthogonalEdgeStyle;rounded=0;orthogonalLoop=1;jettySize=auto;html=1;entryX=0.4;entryY=-0.062;entryDx=0;entryDy=0;entryPerimeter=0;" edge="1" parent="WIyWlLk6GJQsqaUBKTNV-1" source="y7cVPM1f1cwm2seNDRHx-20" target="y7cVPM1f1cwm2seNDRHx-22">
          <mxGeometry relative="1" as="geometry" />
        </mxCell>
        <mxCell id="y7cVPM1f1cwm2seNDRHx-41" value="no" style="edgeLabel;html=1;align=center;verticalAlign=middle;resizable=0;points=[];" vertex="1" connectable="0" parent="y7cVPM1f1cwm2seNDRHx-40">
          <mxGeometry x="-0.1755" y="3" relative="1" as="geometry">
            <mxPoint as="offset" />
          </mxGeometry>
        </mxCell>
        <mxCell id="y7cVPM1f1cwm2seNDRHx-20" value="是否启用自适应" style="rhombus;whiteSpace=wrap;html=1;shadow=0;fontFamily=Helvetica;fontSize=12;align=center;strokeWidth=1;spacing=6;spacingTop=-4;" vertex="1" parent="WIyWlLk6GJQsqaUBKTNV-1">
          <mxGeometry x="252" y="170" width="100" height="80" as="geometry" />
        </mxCell>
        <mxCell id="y7cVPM1f1cwm2seNDRHx-21" style="edgeStyle=orthogonalEdgeStyle;rounded=0;orthogonalLoop=1;jettySize=auto;html=1;entryX=0.5;entryY=0;entryDx=0;entryDy=0;" edge="1" parent="WIyWlLk6GJQsqaUBKTNV-1" source="y7cVPM1f1cwm2seNDRHx-22" target="y7cVPM1f1cwm2seNDRHx-25">
          <mxGeometry relative="1" as="geometry" />
        </mxCell>
        <mxCell id="y7cVPM1f1cwm2seNDRHx-22" value="请求原图" style="rounded=0;whiteSpace=wrap;html=1;fontSize=12;glass=0;strokeWidth=1;shadow=0;fillColor=#dae8fc;strokeColor=#6c8ebf;" vertex="1" parent="WIyWlLk6GJQsqaUBKTNV-1">
          <mxGeometry x="112" y="272.5" width="120" height="40" as="geometry" />
        </mxCell>
        <mxCell id="y7cVPM1f1cwm2seNDRHx-23" value="Yes" style="edgeStyle=orthogonalEdgeStyle;rounded=0;html=1;jettySize=auto;orthogonalLoop=1;fontSize=11;endArrow=block;endFill=0;endSize=8;strokeWidth=1;shadow=0;labelBackgroundColor=none;" edge="1" parent="WIyWlLk6GJQsqaUBKTNV-1" source="y7cVPM1f1cwm2seNDRHx-25" target="y7cVPM1f1cwm2seNDRHx-28">
          <mxGeometry y="10" relative="1" as="geometry">
            <mxPoint as="offset" />
          </mxGeometry>
        </mxCell>
        <mxCell id="y7cVPM1f1cwm2seNDRHx-24" value="no" style="edgeStyle=orthogonalEdgeStyle;rounded=0;orthogonalLoop=1;jettySize=auto;html=1;" edge="1" parent="WIyWlLk6GJQsqaUBKTNV-1" source="y7cVPM1f1cwm2seNDRHx-25" target="y7cVPM1f1cwm2seNDRHx-34">
          <mxGeometry relative="1" as="geometry" />
        </mxCell>
        <mxCell id="y7cVPM1f1cwm2seNDRHx-25" value="是否支持AVIF" style="rhombus;whiteSpace=wrap;html=1;shadow=0;fontFamily=Helvetica;fontSize=12;align=center;strokeWidth=1;spacing=6;spacingTop=-4;" vertex="1" parent="WIyWlLk6GJQsqaUBKTNV-1">
          <mxGeometry x="252" y="350" width="100" height="80" as="geometry" />
        </mxCell>
        <mxCell id="y7cVPM1f1cwm2seNDRHx-26" value="返回自适应图片" style="rounded=1;whiteSpace=wrap;html=1;fontSize=12;glass=0;strokeWidth=1;shadow=0;fillColor=#ffe6cc;strokeColor=#d79b00;" vertex="1" parent="WIyWlLk6GJQsqaUBKTNV-1">
          <mxGeometry x="242" y="610" width="120" height="40" as="geometry" />
        </mxCell>
        <mxCell id="y7cVPM1f1cwm2seNDRHx-27" value="" style="edgeStyle=orthogonalEdgeStyle;rounded=0;orthogonalLoop=1;jettySize=auto;html=1;" edge="1" parent="WIyWlLk6GJQsqaUBKTNV-1" source="y7cVPM1f1cwm2seNDRHx-28" target="y7cVPM1f1cwm2seNDRHx-31">
          <mxGeometry relative="1" as="geometry" />
        </mxCell>
        <mxCell id="y7cVPM1f1cwm2seNDRHx-28" value="转换AVIF" style="rounded=0;whiteSpace=wrap;html=1;fontSize=12;glass=0;strokeWidth=1;shadow=0;fillColor=#dae8fc;strokeColor=#6c8ebf;" vertex="1" parent="WIyWlLk6GJQsqaUBKTNV-1">
          <mxGeometry x="402" y="370" width="120" height="40" as="geometry" />
        </mxCell>
        <mxCell id="y7cVPM1f1cwm2seNDRHx-29" style="edgeStyle=orthogonalEdgeStyle;rounded=0;orthogonalLoop=1;jettySize=auto;html=1;entryX=0.5;entryY=0;entryDx=0;entryDy=0;" edge="1" parent="WIyWlLk6GJQsqaUBKTNV-1" source="y7cVPM1f1cwm2seNDRHx-30" target="y7cVPM1f1cwm2seNDRHx-25">
          <mxGeometry relative="1" as="geometry" />
        </mxCell>
        <mxCell id="y7cVPM1f1cwm2seNDRHx-30" value="根据分辨率和配置选择对应图片" style="whiteSpace=wrap;html=1;shadow=0;strokeWidth=1;spacing=6;spacingTop=-4;rounded=0;fillStyle=auto;fillColor=#dae8fc;strokeColor=#6c8ebf;movable=1;resizable=1;rotatable=1;deletable=1;editable=1;locked=0;connectable=1;" vertex="1" parent="WIyWlLk6GJQsqaUBKTNV-1">
          <mxGeometry x="402" y="270" width="120" height="45" as="geometry" />
        </mxCell>
        <mxCell id="y7cVPM1f1cwm2seNDRHx-31" value="返回自适应AVIF图片" style="whiteSpace=wrap;html=1;rounded=1;glass=0;strokeWidth=1;shadow=0;fillColor=#ffe6cc;strokeColor=#d79b00;" vertex="1" parent="WIyWlLk6GJQsqaUBKTNV-1">
          <mxGeometry x="552" y="360" width="120" height="60" as="geometry" />
        </mxCell>
        <mxCell id="y7cVPM1f1cwm2seNDRHx-32" value="" style="edgeStyle=orthogonalEdgeStyle;rounded=0;orthogonalLoop=1;jettySize=auto;html=1;" edge="1" parent="WIyWlLk6GJQsqaUBKTNV-1" source="y7cVPM1f1cwm2seNDRHx-34" target="y7cVPM1f1cwm2seNDRHx-36">
          <mxGeometry relative="1" as="geometry" />
        </mxCell>
        <mxCell id="y7cVPM1f1cwm2seNDRHx-33" value="no" style="edgeStyle=orthogonalEdgeStyle;rounded=0;orthogonalLoop=1;jettySize=auto;html=1;entryX=0.5;entryY=0;entryDx=0;entryDy=0;" edge="1" parent="WIyWlLk6GJQsqaUBKTNV-1" source="y7cVPM1f1cwm2seNDRHx-34" target="y7cVPM1f1cwm2seNDRHx-26">
          <mxGeometry relative="1" as="geometry" />
        </mxCell>
        <mxCell id="y7cVPM1f1cwm2seNDRHx-42" value="yes" style="edgeStyle=orthogonalEdgeStyle;rounded=0;orthogonalLoop=1;jettySize=auto;html=1;" edge="1" parent="WIyWlLk6GJQsqaUBKTNV-1" source="y7cVPM1f1cwm2seNDRHx-34" target="y7cVPM1f1cwm2seNDRHx-36">
          <mxGeometry relative="1" as="geometry" />
        </mxCell>
        <mxCell id="y7cVPM1f1cwm2seNDRHx-34" value="是否支持Webp" style="rhombus;whiteSpace=wrap;html=1;shadow=0;fontFamily=Helvetica;fontSize=12;align=center;strokeWidth=1;spacing=6;spacingTop=-4;" vertex="1" parent="WIyWlLk6GJQsqaUBKTNV-1">
          <mxGeometry x="252" y="470" width="100" height="80" as="geometry" />
        </mxCell>
        <mxCell id="y7cVPM1f1cwm2seNDRHx-35" value="" style="edgeStyle=orthogonalEdgeStyle;rounded=0;orthogonalLoop=1;jettySize=auto;html=1;" edge="1" parent="WIyWlLk6GJQsqaUBKTNV-1" source="y7cVPM1f1cwm2seNDRHx-36" target="y7cVPM1f1cwm2seNDRHx-37">
          <mxGeometry relative="1" as="geometry" />
        </mxCell>
        <mxCell id="y7cVPM1f1cwm2seNDRHx-36" value="转换Webp" style="whiteSpace=wrap;html=1;shadow=0;strokeWidth=1;spacing=6;spacingTop=-4;fillColor=#dae8fc;strokeColor=#6c8ebf;" vertex="1" parent="WIyWlLk6GJQsqaUBKTNV-1">
          <mxGeometry x="402" y="480" width="120" height="60" as="geometry" />
        </mxCell>
        <mxCell id="y7cVPM1f1cwm2seNDRHx-37" value="返回自适应Webp图片" style="whiteSpace=wrap;html=1;shadow=0;strokeWidth=1;spacing=6;spacingTop=-4;rounded=1;fillColor=#ffe6cc;strokeColor=#d79b00;" vertex="1" parent="WIyWlLk6GJQsqaUBKTNV-1">
          <mxGeometry x="552" y="480" width="120" height="60" as="geometry" />
        </mxCell>
        <mxCell id="y7cVPM1f1cwm2seNDRHx-44" style="edgeStyle=orthogonalEdgeStyle;rounded=0;orthogonalLoop=1;jettySize=auto;html=1;entryX=0;entryY=0.5;entryDx=0;entryDy=0;" edge="1" parent="WIyWlLk6GJQsqaUBKTNV-1" source="y7cVPM1f1cwm2seNDRHx-43" target="y7cVPM1f1cwm2seNDRHx-17">
          <mxGeometry relative="1" as="geometry" />
        </mxCell>
        <mxCell id="y7cVPM1f1cwm2seNDRHx-43" value="Actor" style="shape=umlActor;verticalLabelPosition=bottom;verticalAlign=top;html=1;outlineConnect=0;" vertex="1" parent="WIyWlLk6GJQsqaUBKTNV-1">
          <mxGeometry x="82" y="70" width="48" height="60" as="geometry" />
        </mxCell>
        <mxCell id="y7cVPM1f1cwm2seNDRHx-48" value="请求中是否包含分辨率字段：Pixel" style="shape=note;whiteSpace=wrap;html=1;backgroundOutline=1;fontColor=#000000;darkOpacity=0.05;fillColor=#FFF9B2;strokeColor=none;fillStyle=solid;direction=west;gradientDirection=north;gradientColor=#FFF2A1;shadow=1;size=0;pointerEvents=1;" vertex="1" parent="WIyWlLk6GJQsqaUBKTNV-1">
          <mxGeometry x="315" y="130" width="198" height="50" as="geometry" />
        </mxCell>
        <mxCell id="y7cVPM1f1cwm2seNDRHx-49" value="1、屏幕尺寸&amp;gt;750，返回750的图片&lt;br&gt;2、640&amp;lt;=屏幕尺寸&amp;lt;750, 返回640图片&lt;br&gt;3、屏幕尺寸小于640， 返回480图片&lt;br&gt;4、没有相应的尺寸，或转换后变大返回原图" style="shape=note;whiteSpace=wrap;html=1;backgroundOutline=1;fontColor=#000000;darkOpacity=0.05;fillColor=#FFF9B2;strokeColor=none;fillStyle=solid;direction=west;gradientDirection=north;gradientColor=#FFF2A1;shadow=1;size=0;pointerEvents=1;align=left;" vertex="1" parent="WIyWlLk6GJQsqaUBKTNV-1">
          <mxGeometry x="520" y="170" width="250" height="102.5" as="geometry" />
        </mxCell>
        <mxCell id="y7cVPM1f1cwm2seNDRHx-50" value="请求中是否有image/avif" style="shape=note;whiteSpace=wrap;html=1;backgroundOutline=1;fontColor=#000000;darkOpacity=0.05;fillColor=#FFF9B2;strokeColor=none;fillStyle=solid;direction=west;gradientDirection=north;gradientColor=#FFF2A1;shadow=1;size=20;pointerEvents=1;" vertex="1" parent="WIyWlLk6GJQsqaUBKTNV-1">
          <mxGeometry x="84" y="330" width="158" height="70" as="geometry" />
        </mxCell>
        <mxCell id="y7cVPM1f1cwm2seNDRHx-52" value="请求中是否有image/webp" style="shape=note;whiteSpace=wrap;html=1;backgroundOutline=1;fontColor=#000000;darkOpacity=0.05;fillColor=#FFF9B2;strokeColor=none;fillStyle=solid;direction=west;gradientDirection=north;gradientColor=#FFF2A1;shadow=1;size=20;pointerEvents=1;" vertex="1" parent="WIyWlLk6GJQsqaUBKTNV-1">
          <mxGeometry x="82" y="460" width="158" height="70" as="geometry" />
        </mxCell>
      </root>
    </mxGraphModel>
  </diagram>
</mxfile>
